/* XPM */
static char * cartidge_xpm[] = {
"12 25 44 1",
" 	c None",
".	c #272630",
"+	c #B44648",
"@	c #E14D4D",
"#	c #8E3747",
"$	c #522D3A",
"%	c #442B37",
"&	c #744647",
"*	c #DE4C4D",
"=	c #723240",
"-	c #7E3544",
";	c #E04D4D",
">	c #803544",
",	c #E14D4C",
"'	c #DF4D4D",
")	c #C0434C",
"!	c #833D43",
"~	c #A84749",
"{	c #9F803F",
"]	c #E5C548",
"^	c #A8953E",
"/	c #F7EE48",
"(	c #A8953D",
"_	c #F6EE49",
":	c #A7953D",
"<	c #F7ED48",
"[	c #96833A",
"}	c #D5C53F",
"|	c #756031",
"1	c #8C7633",
"2	c #8E7332",
"3	c #8F7331",
"4	c #90762E",
"5	c #8F752C",
"6	c #8E732E",
"7	c #8E7330",
"8	c #8E7231",
"9	c #CDB448",
"0	c #DDCD48",
"a	c #F0EF4D",
"b	c #F0EF4C",
"c	c #F0EE4C",
"d	c #F2EA4B",
"e	c #CCB446",
"  .+@@@@#$  ",
" %&@@*@@@=% ",
" -;;;;;;;;- ",
" >@@@@@@@@> ",
" >@@@@@@@@> ",
" >@@@@@@@@> ",
" >@@@@@@@@> ",
" >@@@@@@@@> ",
" >@@@@@@@@> ",
" >@@@@@@@@> ",
" >@@@@@@@@> ",
" >@@@@@@@@> ",
" >,,,,,,,,> ",
" >,,,,,,,,> ",
" >''''''''> ",
" >))))))))> ",
" !~~~~~~~~! ",
" {]]]]]]]]{ ",
" ^////////^ ",
" (________( ",
" :<<<<<<<<: ",
" [}}}}}}}}[ ",
" |12345678| ",
"990aaabcd0e9",
"990aaabcd0e9"};
