/* XPM */
static char * crosshair2_xpm[] = {
"60 60 18 1",
" 	c None",
".	c #FFFFFF",
"+	c #FFFFFF",
"@	c #FFFFFF",
"#	c #FFFFFF",
"$	c #FFFFFF",
"%	c #FFFFFF",
"&	c #FFFFFF",
"*	c #FFFFFF",
"=	c #FFFFFF",
"-	c #FFFFFF",
";	c #FFFFFF",
">	c #FFFFFF",
",	c #FFFFFF",
"'	c #FFFFFF",
")	c #FFFFFF",
"!	c #000000",
"~	c #FFFFFF",
"                        ............                        ",
"                    ....................                    ",
"                  ........................                  ",
"                ............................                ",
"              ...........   ....   ...........              ",
"            .........       ....       .........            ",
"           ........         ....         ........           ",
"          .......           ....           .......          ",
"         ......             ....             ......         ",
"        ......              ....              ......        ",
"       ......               ....               ......       ",
"      ......                ....                ......      ",
"      .....                                      .....      ",
"     .....                                        .....     ",
"    .....                                          .....    ",
"    ....                                            ....    ",
"   .....                    ....                    .....   ",
"   ....                     ....                     ....   ",
"  .....                     ....                     .....  ",
"  ....                      ....                      ....  ",
" .....                                                ..... ",
" ....                                                  .... ",
" ....                                                  .... ",
" ....                                                  .... ",
".....                       ....                       .....",
"....                        ....                        ....",
"....                        ....                        ....",
"....                        ....                        ....",
"............    ....    ............    ....    ............",
"............    ....    ............    ....    ............",
"............    ....    ............    ....    ............",
"............    ....    ............    ....    ............",
"....                        ....                        ....",
"....                        ....                        ....",
"....                        ....                        ....",
".....                       ....                       .....",
" ....                                                  .... ",
" ....                                                  .... ",
" ....                                                  .... ",
" .....                                                ..... ",
"  ....                      ....                      ....  ",
"  .....                     ....                     .....  ",
"  .....                     ....                     .....  ",
"   .....                    ....                    .....   ",
"   .....                                            .....   ",
"    .....                                          .....    ",
"     .....                                        .....     ",
"     .....                                        .....     ",
"      .....                 ....                 .....      ",
"       ......               ....               ......       ",
"        ......              ....              ......        ",
"         ......             ....             ......         ",
"          .......           ....           .......          ",
"           .......          ....          .......           ",
"             ........       ....       ........             ",
"              ..........    ....    ..........              ",
"               ..............................               ",
"                 ..........................                 ",
"                    ....................                    ",
"                       ..............                       "};
