/* XPM */
static char *fe342233bca149d3d1227fc29542f543YJ7WPJIRNdmFJ8uZ[] = {
/* columns rows colors chars-per-pixel */
"56 56 4 1 ",
"  c None",
". c black",
"X c #010101",
"o c #020202",
/* pixels */
" ...................                ................... ",
"....................                ....................",
"....................                ....................",
"....................                ....................",
"....                                                ....",
"....                                                ....",
"....                                                ....",
"....                                                ....",
"....                                                ....",
"....                                                ....",
"....                                                ....",
"....                                                ....",
"....                                                ....",
"....                                                ....",
"....                                                ....",
"....                                                ....",
"....                                                ....",
"....                                                ....",
"....                                                ....",
"....                                                ....",
"                                                        ",
"                                                        ",
"                          ....                          ",
"                          ....                          ",
"                          ....                          ",
"                          ....                          ",
"                      ............                      ",
"                      ............                      ",
"                      ............                      ",
"                      ............                      ",
"                          ....                          ",
"                          ....                          ",
"                          ....                          ",
"                          ....                          ",
"                                                        ",
"                                                        ",
"....                                                ....",
"....                                                ....",
"....                                                ....",
"....                                                ....",
"....                                                ....",
"....                                                ....",
"....                                                ....",
"....                                                ....",
"....                                                ....",
"....                                                ....",
"....                                                ....",
"....                                                ....",
"....                                                ....",
"....                                                ....",
"....                                                ....",
"....                                                ....",
"....................                ....................",
"....................                ....................",
"....................                ....................",
" ...................                ................... "
};
