/* XPM */
static char *e836384f_e183_4b5f_b249_071d00c37eaa1741463534[] = {
/* columns rows colors chars-per-pixel */
"61 40 229 2 ",
"   c #020203",
".  c #0A0203",
"X  c #030903",
"o  c #0A0905",
"O  c #04030A",
"+  c #0A030A",
"@  c #05090B",
"#  c #0A0A0C",
"$  c #130201",
"%  c #1B0102",
"&  c #130B03",
"*  c #1A0B02",
"=  c #12040C",
"-  c #1A060C",
";  c #0C130A",
":  c #1D1A02",
">  c #151305",
",  c #040311",
"<  c #0A0411",
"1  c #0B0B12",
"2  c #050618",
"3  c #130B14",
"4  c #140818",
"5  c #0D1114",
"6  c #0F1813",
"7  c #111215",
"8  c #19191E",
"9  c #14161A",
"0  c #230303",
"q  c #2C0203",
"w  c #2D0A04",
"e  c #340101",
"r  c #3D0302",
"t  c #3E0809",
"y  c #221301",
"u  c #241902",
"i  c #2D1C00",
"p  c #331C05",
"a  c #1E201F",
"s  c #2C2903",
"d  c #372704",
"f  c #2B2A15",
"g  c #392C09",
"h  c #1D1C21",
"j  c #1A1829",
"k  c #091521",
"l  c #231C25",
"z  c #232424",
"x  c #232429",
"c  c #282A29",
"v  c #2B2D32",
"b  c #2D3133",
"n  c #313235",
"m  c #393A3E",
"M  c #35373A",
"N  c #30382B",
"B  c #192C32",
"V  c #460201",
"C  c #4C0202",
"Z  c #480608",
"A  c #530204",
"S  c #5B0203",
"D  c #580607",
"F  c #591114",
"G  c #620404",
"H  c #630802",
"J  c #680909",
"K  c #770A09",
"L  c #750B11",
"P  c #423B04",
"I  c #503B00",
"U  c #55450C",
"Y  c #5C5710",
"T  c #675512",
"R  c #665402",
"E  c #72660F",
"W  c #444639",
"Q  c #736D31",
"!  c #3B3C45",
"~  c #2D2B40",
"^  c #3E4546",
"/  c #44454A",
"(  c #41494B",
")  c #454748",
"_  c #494C51",
"`  c #4E575B",
"'  c #595A5D",
"]  c #535758",
"[  c #505251",
"{  c #5D5D67",
"}  c #665160",
"|  c #61616A",
" . c #67686A",
".. c #686871",
"X. c #7D7A7F",
"o. c #8D0C0D",
"O. c #870709",
"+. c #970D0B",
"@. c #921118",
"#. c #AE0A0A",
"$. c #A30B0D",
"%. c #B20A0E",
"&. c #BD080F",
"*. c #AD0C12",
"=. c #B70A12",
"-. c #B21018",
";. c #811D25",
":. c #B11826",
">. c #DB0607",
",. c #C70914",
"<. c #D30C12",
"1. c #D70916",
"2. c #C91018",
"3. c #DA101C",
"4. c #E50502",
"5. c #EC0303",
"6. c #E3040B",
"7. c #EA050A",
"8. c #F40102",
"9. c #F30108",
"0. c #FC0208",
"q. c #E40811",
"w. c #E0101D",
"e. c #F40A15",
"r. c #C31D21",
"t. c #8C7416",
"y. c #947A18",
"u. c #837326",
"i. c #93831B",
"p. c #938615",
"a. c #968914",
"s. c #AB9814",
"d. c #A2821D",
"f. c #A4A61E",
"g. c #9A8624",
"h. c #8F912E",
"j. c #8D852C",
"k. c #A3983C",
"l. c #AA8F28",
"z. c #B6A828",
"x. c #BEB12F",
"c. c #C7B71C",
"v. c #C7B337",
"b. c #F5CF03",
"n. c #EED303",
"m. c #ECDA08",
"M. c #F5D204",
"N. c #FAD302",
"B. c #FADC03",
"V. c #FBD50B",
"C. c #F5DA0B",
"Z. c #FBDB0B",
"A. c #F2D40A",
"S. c #EACB1E",
"D. c #EAD819",
"F. c #F5D512",
"G. c #FAD412",
"H. c #F9DB14",
"J. c #E6CC00",
"K. c #D7CA33",
"L. c #EACC23",
"P. c #E3CB2B",
"I. c #EAD223",
"U. c #ECDB28",
"Y. c #F3DA28",
"T. c #EAD631",
"R. c #E2CC3B",
"E. c #DFE63E",
"W. c #EFE021",
"Q. c #DFCD45",
"!. c #E9D945",
"~. c #7C7C83",
"^. c #6E7786",
"/. c #7C8790",
"(. c #84878A",
"). c #8C8D92",
"_. c #919297",
"`. c #989A9E",
"'. c #96979C",
"]. c #919190",
"[. c #A2AD9F",
"{. c #9C9DA2",
"}. c #9B9CA9",
"|. c #9FA3AE",
" X c #A5A6AA",
".X c #ABB1AA",
"XX c #AAADB3",
"oX c #A6B4B2",
"OX c #B4B5BA",
"+X c #B8B8C4",
"@X c #B6BCCB",
"#X c #D0BCC8",
"$X c #BDC6D3",
"%X c #B9C8C5",
"&X c #C9CACE",
"*X c #C6C7CE",
"=X c #CBD3CC",
"-X c #CCCED3",
";X c #C7CBD7",
":X c #D1CDD8",
">X c #CDD1D4",
",X c #CCD4DB",
"<X c #CBD9DB",
"1X c #C6D6D3",
"2X c #D4D6D3",
"3X c #D4DBD4",
"4X c #DBDBD5",
"5X c #D4D5DB",
"6X c #D9D7DE",
"7X c #D5DADD",
"8X c #DADBDD",
"9X c #E0DFDD",
"0X c #DBE2DB",
"qX c #D3E1C8",
"wX c #E1E2DD",
"eX c #CED4E5",
"rX c #D4D5E3",
"tX c #D5DBE3",
"yX c #DCDDE3",
"uX c #D7D9E9",
"iX c #D5D6F3",
"pX c #E1DDE3",
"aX c #E1DEEC",
"sX c #DDE1E4",
"dX c #DEE1F2",
"fX c #E1E2E5",
"gX c #E3E4EA",
"hX c #E7E9ED",
"jX c #E5E5F5",
/* pixels */
"& X       . . + . r L *.=.,.,.,.=.=.%.%.#.%.%.%.#.#.#.#.%.#.#.#.#.#.#.#.#.#.%.#.$.$.+.+.o.o.O.K K K H H G D D D A C A C C ",
"o           . +   $ V A H S S G G S S S S G S S S S S S S S S S S A A S A S A S C C C V V r w q 0 0 0 0 0 % % % % $ $ $ $ ",
"o O O O O . O O O . . $ * % % . $ $ $ $ $ $ $ $ % % $ $ $ $ $ $ $ $ $ $ $ $ $ $ $ $ $ $ . . . . . . . . . . . .   . . . . ",
"O O O O     + O + O     . = .       O +           .                             .   .   . . .     .   . . . . . . . .   . ",
"  O O +         .     O O .         . . . .   . . .                                             O                         ",
"    .       X   .     O O                                           O                           + O                       ",
"O           X             O   X                                                                                           ",
"X     . . X X       O O O       .           O O                                                             .             ",
"      +     O .   O O , O O               O 2           O       X O     o X     X         . O O         .   O . .     .   ",
"  o     @     X   O O O O         O   +   O O     O         o   o   @ O     O +           O O O . + . . $ .       O   O = ",
"O       X   X X O O O O O O O         + + +   X         O o   o   X     O O + = - $   . % + + + . $ % % q q 0 $         + ",
"o       X > > * u y * * : : : u i y i p p i d - .   X     O z n z o X   + . = 0 Z Z C C A A C D C A G G G L F w     @   + ",
"  # , o s Q Q t.y.t.t.y.p.y.i.i.g.y.y.l.l.a.h.f &     X   n _.`.(.c X X .   $ 0 L @.-.%.%.&.2.,.<.<.<.2.2.:.;.t .     o . ",
"  O O   s k.Q.P.L.S.S.L.S.S.I.I.L.L.L.L.U.!.k.p =   X   a '.uXrX>X/.6   o   . % J *.1.>.>.9.0.9.8.0.9.6.3.:.J 0 $ .     h ",
"; O o   > E K.U.F.G.G.V.C.H.C.C.N.M.V.C.W.x.U * + o X ;  .5XrXeXuX*X` @ #   o $ r o.,.>.>.8.8.5.4.5.5.4.2.L r $ X X . #  .",
"7     @ O : h.I.C.V.V.V.Z.B.B.B.M.B.M.m.T.E * . O .   ) OXrXeXiXuX<XoXx @ , @ . % D -.1.4.8.5.4.5.4.7.q.$.C $   . .   / *X",
"' o O ,   > d z.Y.F.N.V.Z.n.C.n.A.B.J.T.g.: & < , O v `.tXsX,XuX<X:XrX^.k , +     w S -.q.9.5.7.5.5.e.,.K % o X   4 l OX$X",
"oXv O , O   & R T.n.B.Z.Z.n.n.n.n.C.D.s.d . o < O 9 ].=X7X7XyXyX>X5X6X*X` , = + . . r o.<.9.8.8.5.>.<.O.V % .   O 4 ).6XtX",
",X(.8 O   + * y y.U.Z.M.N.V.G.b.A.Y.c.U . O O   X [ =XfX4X2X0X4X7XyX-X7X|.c . . = . % G =.6.8.8.5.,.+.r . . . 5 O ` :XuX<X",
"3X;X[ o + o $ $ g v.Y.G.N.b.F.V.D.I.E - # O O X N [.0X3X4X4X4X4XsXyX6X&XrX~.= . . $ $ e K &.q.7.q.$.Z $     < O B +X5X-X>X",
"3XyX.Xz + +     y T R.H.N.M.N.F.T.s.p $   X 2 z (.0X8X4XfX9X4X4XsX0XfX<X<X%X` X . % $ . r o.3.3.2.G %   O @ , @ /.<XeX<X7X",
">XtX7XX.j 2 o O $ y g.I.A.m.B.I.v.I $ X   + 3 | <XgXpXpX8X9XpXpXfX<XsX0X1X1XoXv , = 4 @ $ J *.r.o.e     4   O | eX<XtX7X6X",
"7XtX>X=X| 2 O X X $ g z.T.m.m.K.T % .   o . ) +XjXuXaXrXrXpXgXyXsX7XsXyXsX<X7XX.j 2 , @   e J ;.A 0 O . -   ! ;XsX7X>X>X>X",
"4X7X3XqX.Xn 2     O > Y K.D.U.a.y . . O O c  XdXiXjXaXaXpXhXpXuXyXsXsXpXpX3X5X#X} 4 O O o $ q Z e $ # .   x  XdX5X7X7X7X2X",
"gX5X0X3X1X~.k + o . $ u i.E.f.P $ . 3 O 7 /.yXuXuXgXyXyXfXpXsXfXyXyXsXyXyXyXyXyXOXm @ O   .   + o   O O 7 ~.gXrXtX7X-X5X5X",
"6X6X7X>XtX$X{ o o   . = g h.Y > . + O + ' *XsXgXyXyXyXfXsXyXsXyXyXyXyXyXfXsXyX6XyX).z   # o . .   # O O | :X5XaX>X7X6XsXtX",
"fXgXyX1XuXiX Xb     < + X f : @ .   + ! OXfX8XhX6XpXsXyXsXyXyXyXsXyXyXyXfXgXfXyXyX2X..7 O O     o .   n #XgXrXfX8XsX6XyX8X",
"yXyXtXtXiXeX<X].z   # O o o o o O O x ).hXfXfXhXsXhXgXsXgXfXfXaXyX6X7X6X5X5X5X2X&X5XOX^ 1   O   O   h (.hX6XpX>X5X-XOXOXOX",
"sXtXuX,X,X$X;XoXW # O   # . O   , @ v _.XXXX X`. X X{.`.{.{.{.{.{.'._._.).).).(.).(.)./ 5   O O O   7 / { ' ] [ _ / ! M v ",
"_ ( _ ^ ^ ^ ! M f   + O O O O 2 O O 8 m M ^ ! b v v x x z x x x h h h h h 8 7 1 7 @ 1 #       O     @ O   #   O   O O O O ",
"6 1 ; ; ; 1 2 1 O     X O 1 O O O   O   @ O O o O @     O   O     O   O O O O   O @   O   @         O   @ O 1 O O   O     ",
"@ @ X X X @ , , 2   X             X     1 < O @   O   O O O       O O   O .   O         .             O O O   @     O O   ",
"O X X   + + O + O O   X . O       X X X   + O     O       O O O   O       O                                   O   O       ",
"O   X X O + O , O . .   . O O     X         O   O     O O O   O       O       O                               O       O   ",
"O O + . + 2 , , O O     O , O O           O                                                           X                   ",
"O .   + + O , O O .     O O , O     X           O         O             O                                     O           ",
"O   X . . O . O o     O   O , , .         O                 O           O                       O       X                 ",
"O O   o O O       X     O O O O o         . X     O O     O                       O X               X         X           ",
"  o X       X       X O     O O X O O   O       O   O                             X     X               X                 ",
"        O     X   X     X o   O O O       O             X O                 O   .   o               X   X                 "
};
