/* XPM */
static char *s1741462759[] = {
/* columns rows colors chars-per-pixel */
"40 40 223 2 ",
"   c #150C0B",
".  c #1B0C0B",
"X  c #1B0A06",
"o  c #0A130C",
"O  c #15150D",
"+  c #130E13",
"@  c #1B0E13",
"#  c #1A0F1C",
"$  c #140A19",
"%  c #0D1415",
"&  c #0D1B13",
"*  c #0C151A",
"=  c #0D1B1A",
"-  c #03181A",
";  c #141415",
":  c #1B1315",
">  c #141B14",
",  c #1A1916",
"<  c #15151B",
"1  c #1B141C",
"2  c #141A1D",
"3  c #1B1A1D",
"4  c #220807",
"5  c #2A040B",
"6  c #230B0C",
"7  c #29070A",
"8  c #3A0503",
"9  c #34030C",
"0  c #3C020B",
"q  c #340A0C",
"w  c #3A080B",
"e  c #320303",
"r  c #26110E",
"t  c #210614",
"y  c #230C14",
"u  c #2B0B13",
"i  c #25061A",
"p  c #240B1B",
"a  c #2C0619",
"s  c #370616",
"d  c #221315",
"f  c #22141B",
"g  c #221A1D",
"h  c #2B1516",
"j  c #321216",
"k  c #0C211C",
"l  c #0B2117",
"z  c #14211B",
"x  c #17241B",
"c  c #1B0E20",
"v  c #0B1723",
"b  c #0E1A21",
"n  c #151522",
"m  c #1B1522",
"M  c #141C22",
"N  c #1C1B22",
"B  c #1D1228",
"V  c #1A1E2A",
"C  c #131A29",
"Z  c #211426",
"A  c #221B23",
"S  c #221529",
"D  c #201D2C",
"F  c #2A1921",
"G  c #0D2324",
"H  c #0E2628",
"J  c #142123",
"K  c #1C2224",
"L  c #1C232C",
"P  c #1A282C",
"I  c #1A2634",
"U  c #222124",
"Y  c #232429",
"T  c #242A2C",
"R  c #2B2B2F",
"E  c #2A252B",
"W  c #2C2C34",
"Q  c #252832",
"!  c #2B383C",
"~  c #32333A",
"^  c #35383B",
"/  c #42030C",
"(  c #4E040B",
")  c #440B0E",
"_  c #490105",
"`  c #53040C",
"'  c #580609",
"]  c #470715",
"[  c #5C0416",
"{  c #441214",
"}  c #64040E",
"|  c #75030C",
" . c #7F080E",
".. c #6A0414",
"X. c #650A15",
"o. c #690716",
"O. c #740A14",
"+. c #790A17",
"@. c #64161C",
"#. c #770821",
"$. c #631620",
"%. c #3A3C40",
"&. c #2C3D45",
"*. c #3B4244",
"=. c #374448",
"-. c #3C5057",
";. c #424146",
":. c #4A4A4D",
">. c #43444D",
",. c #4B514F",
"<. c #4C4C54",
"1. c #4F535D",
"2. c #4A5659",
"3. c #565459",
"4. c #535455",
"5. c #4C5A63",
"6. c #585A64",
"7. c #5D6266",
"8. c #5D7079",
"9. c #64666A",
"0. c #6D6E72",
"q. c #657072",
"w. c #8B0A17",
"e. c #860A18",
"r. c #9D081A",
"t. c #9C0B14",
"y. c #8D1016",
"u. c #98101E",
"i. c #AD0A1C",
"p. c #A2071A",
"a. c #B70C1C",
"s. c #B7131A",
"d. c #880622",
"f. c #940021",
"g. c #9E1121",
"h. c #A50D24",
"j. c #B90B29",
"k. c #A71624",
"l. c #B31025",
"z. c #AE1F31",
"x. c #B31931",
"c. c #8E202D",
"v. c #972433",
"b. c #C80D1A",
"n. c #DB091E",
"m. c #D71015",
"M. c #FC0104",
"N. c #F6020C",
"B. c #FD020C",
"V. c #F70303",
"C. c #E50B1C",
"Z. c #EA071A",
"A. c #F50413",
"S. c #FD0214",
"D. c #F4061E",
"F. c #FC031B",
"G. c #F4081C",
"H. c #FA0918",
"J. c #CA0A27",
"K. c #DC0B23",
"L. c #D90D28",
"P. c #CC1629",
"I. c #DB1626",
"U. c #D8122B",
"Y. c #EC0A26",
"T. c #E60B29",
"R. c #E80A27",
"E. c #F30522",
"W. c #FA0520",
"Q. c #F80B27",
"!. c #E50F31",
"~. c #6B7F80",
"^. c #7A7B80",
"/. c #7D8589",
"(. c #86898D",
"). c #8C8C92",
"_. c #92959A",
"`. c #95949A",
"'. c #A4A5AA",
"]. c #ACADAF",
"[. c #ABABB2",
"{. c #AAAAB4",
"}. c #AAB6B8",
"|. c #B3B3BA",
" X c #B3B9B9",
".X c #BAA8B4",
"XX c #BCBDC3",
"oX c #B1BCC2",
"OX c #BACECF",
"+X c #C5CDCD",
"@X c #C5C4C9",
"#X c #CCCDD2",
"$X c #D4D6DD",
"%X c #D7DADC",
"&X c #D5D5D9",
"*X c #DCDEE4",
"=X c #D7DEE6",
"-X c #D4E2E6",
";X c #DCE6E9",
":X c #DEE7F0",
">X c #DBF4F1",
",X c #E5E4EB",
"<X c #E4E9EC",
"1X c #E8E9ED",
"2X c #ECF2EF",
"3X c #F3F7EF",
"4X c #ECEDF3",
"5X c #EFEFF9",
"6X c #F5EEF9",
"7X c #F2EDF4",
"8X c #E5F6F5",
"9X c #EDF3F5",
"0X c #EDF4FA",
"qX c #EDFBFB",
"wX c #E8F8F8",
"eX c #F4F5F5",
"rX c #F8F7F6",
"tX c #F5FAF5",
"yX c #FBFAF5",
"uX c #F3F6FA",
"iX c #FBF5FC",
"pX c #F5F9FC",
"aX c #FBFBFC",
/* pixels */
"A.H.S.S.S.G.n.P.v.$.j < M m 1 1 f 1 1 < 1 m m M 2 j @.z.U.Y.G.A.A.S.B.N.N.B.M.M.",
"A.S.S.A.Y.I.i.y.X.] d < n < 1 : d f f 3 2 * ; p @ u q `  .l.C.D.H.S.B.B.N.B.B.M.",
"B.S.F.Y.P.k.O._ 8 5 ; M < # : f r d : 3 3 3 1 y f d X 6 { ..r.L.Q.F.S.B.B.B.B.M.",
"B.S.Q.J.u.X.w r y 1 m M n < 1 : d : , 1 g g , > 3 < + : y 9 ` e.a.T.W.B.B.B.B.B.",
"F.E.L.h.o.w 6 < < 2 M M m g A 3 g 3 3 3 3 ; > & ; 1 A m $ # 9 0 | i.C.G.S.S.B.B.",
"W.K.h.../ d < < < < < m N A N 3 N x M = k z U U m Z Z B n N 3 . 8 ' p.I.Z.F.F.B.",
"Y.i...0 @ 1 2 < N 1 1 N 1 < < M M J J H G J 2 1 V m m Z S m < & X e [ g.P.E.F.S.",
"L.w./ y $ % % n m 1 1 N 3 N I ! &.-.5.5.>.W Y J n L L B D D < 2 o d e ' x.!.D.W.",
"t.) : : * C $ > 1 1 3 < Y 5./.oX=X8XqX5X6X,XXXq.! P M K 2 A < M z . j s +.j.Y.F.",
"| 5 ; ; = b $ N 3 3 , :._.-X:XpX0X5X0XiXiXaXaXuXOXq.! J Y E + 3 m @ : y ] d.J.Q.",
"` $ * * = * m N > U 4. X<XpX0X0XuXiXiX6X6X6XuXpXqX>X}.=.1 U R < N m < # a [ h.!.",
"s < v % 2 < N N Y ,.+XtXuX0X5XuX6X5X6XiXaXaX9XaXqXwXqX+X9.< U N M 1 m p s s #.J.",
"a B C ; g m B K %. XtXtXqX0XaX0XiXtXiXyX3XyX2XtXaXaXaXaX@X3.+ K H = 3 t a u ` t.",
"i B B : g A m R (.2XaX8XqXaX0XuX4XtXyXyXtXtXtXtXaXiXaXiX4X].*.J H = z < g 3 q O.",
"c Z S 3 g N A <.#XaX9XaXuX0XaXaXtXrX3XyXyXtXtXaXaXiXaXaXaX4X(.Q J 2 K 2 m 2 r ` ",
"< Z S 3 g A Q 0.eXtXaXaXpXaXuXeX0XaXyXyXyXtXaXaXaXaXaXaXaXaX#X2.M N 3 < 1 ; d w ",
"# < < < g 1 ^ `.aXpXpXtXuXpXeX9XtXeXtXaXaXaXaXyXaXaXaXaXaXaX1X_.T 2 K 3 ;   d @ ",
"+ # m < 3 f ;.|.aXaXaXpXtXuXeXeXuXtXiXaXaXiXyXaXaXaXaXtXaXaXaX@X;.m N 3 ; : : : ",
"$ < m m N A 4.#XaXaXaXpXpXtXuXeXaXtXiXiXyXaXyXaXyXtXaXaXaXuXaX,X0.K 3 < ; : : @ ",
": : 1 m A E 3.#XaXpXpXpXpXpXuXtXpXaXaXyXaXaXiXaXaXyXaXaXaXtXuX1X`.R 3 2 3 1 : @ ",
"< 1 # n N T 3.#XaXaXuXpXpXpXpXuXaXaXaXaXaXaXaXiXaXaXaXaXaXaXaXpX].W U < m 1 # 1 ",
"; 1 m n m U :.@XaXaXpXuXpXpXpXwXpXaXaXaXaXaXaXaXaXaXaXaXaXaXaXaX@X~ K 1 m 1 1 m ",
"; 2 m n N N %.'.aXpXpXpXpX0XuXuXiXiXaXaXaXaXaXaXaXaXaXaXaXaXaXuX@X~ N < N 3 < m ",
"% < < n m 3 W ).pXpXpXpXpXpXuXuXtXpXaXaXaXaXaXaXaXaXtXaXaXaXaXaX X~ N < N m m m ",
"  o * n m V U 9.&XaXuXpX9XpX9XpXuXpXaXaXaXaXaXiXaXaXaXaXaXuXuX4X.XW G 2 f m < n ",
"7   < 1 1 m N *.'.eXuXuX0XpXpXuXuXpXuXiXaXaXaXaXtXyXaXtXaXaXaX*X).T 2 3 1 N 1 # ",
"_ 4 , ; 1 A 3 P q.%XpXuX9XuXuXuXuXuXuXtXaXaXaXaXaXaXtXiXtXiXpX%X7.J 3 1 1 M # p ",
"X.7 , 3 A A A 2 ^ _.;X0XuXuX9X0XeX0XuXtXaXaXaXtXeXaXrXiXiXeX4X].*.M 1 1 m < : i ",
"c.{ g 3 A A A V Y ,.}.9XpXuXuXuX0X0XuXeXiXiXeXiXtXeXaXiXuXaX%X0.E 3 2 ; 1 < # @ ",
"z.@.j g A N A A * Y 6.|.0X0XuX0X0XtXuXeXrXiXyXeXtXeXaXuXaX,X).^ 1 2 < < 1 < @ 5 ",
"U.w.` u : 3 : N m M V 6.XX4XuXpX0X0XeXtXyXyXyXyXtXaXaXaX5X{.:.T 3 2 < 2 2 ; 6 ] ",
"R.i.} / O > o ; C n V Q 6.{.*XuXqX0XtXuXiXyXyXyXeXeXiX,X'.5.Q n P 2 1 < = % 7 [ ",
"E.K.r.( 4 @ < 2 * = M Z A >./. X-X9XuXpXtXaXuXuXpXwX+X(.<.W V J M 2 1 g < % ] f.",
"F.R.J.+.) y : * < * 2 1 # 3 T *.^.[.$X-X:XwX:X$X'./.,.R N 3 M z k - 1 p @ 6 X.l.",
"A.W.T.l.#.] y % ; & = N N z k z A Y &.5.8.8.2.=.*.T x > , ; % > - - > y 5 / w.J.",
"S.S.E.L.j.d.] @ : 2 k % < J G = N m Z Y I I H H l l l x x g ; + * = < 4 / O.i.n.",
"S.S.S.E.T.J.+.) 7 . : < 2 M J C 2 3 3 < n V L M z l l l > < m n 2 % . 0 O.h.L.Z.",
"B.B.B.H.W.E.b.y.' 8 4 y < * - v 3 2 , x M < 1 F , x > 2 M < n m ; . 8 O.l.K.G.H.",
"B.B.B.B.S.S.C.b.t.| _ 9 p % v C N 3 > & 2 3 f u g : > < m c p t q (  .s.C.G.B.S.",
"N.B.M.M.V.B.N.N.I.s.w.} s p c c C > O   1 3 1 : o 2 2 < $ a a 9 } e.s.m.Z.N.B.B."
};
