/* XPM */
static char *out[] = {
/* columns rows colors chars-per-pixel */
"62 63 42 1 ",
"  c #4B4B4B",
". c gray28",
"X c #434343",
"o c gray23",
"O c gray31",
"+ c gray34",
"@ c #5B5B5B",
"# c gray39",
"$ c #2F2F2F",
"% c #373737",
"& c gray42",
"* c #272727",
"= c #00006B",
"- c #000083",
"; c #00009B",
": c #131313",
"> c #1B1B1B",
", c black",
"< c #0000CB",
"1 c #232323",
"2 c #000047",
"3 c #00002F",
"4 c #00003B",
"5 c #000053",
"6 c #0000E3",
"7 c #0000B3",
"8 c #777777",
"9 c #6F6F6F",
"0 c gray50",
"q c #000017",
"w c #838383",
"e c #000023",
"r c #8B8B8B",
"t c blue",
"y c #939393",
"u c #1B1BFF",
"i c #3737FF",
"p c #979797",
"a c #13230B",
"s c #17330F",
"d c #1F4317",
"f c white",
/* pixels */
" .Xo. X. . .oX. X. . .X. .O. O++++O .oX. X. . .X. .O. . .X .Xo",
" ..X. .. . .X.. .. . ... .O O@####@O.X.. .. . ... .O. . .. ..X",
"O .X O. O O .  O. O O . Xo$$%O&&&#O%*$o O. O O . O + O O .O .X",
"O  . O  +O+O. OO  O Ooo%%$=-;%@&&@%;-=:>$oXO O   O + O O  O  .",
"+O .O+ O+O+O OO+ @+Xo$=-=:,,-<%@@%<==:>1-=1X +O O+O@O+O+O +O .",
"+OO O+OO++++ O++OXo$$>:,,,223-<%%<-44,,,==>1oXOOO+O@O+O+OO+OO ",
"++O ++O+++++ O+Xo1::,,25=-===-=66;5==-=5,,,5-%oX+++@+++++O++O ",
"@++O+@++@+@+OXo>$;5,55====--==-77;==-----=55=7-:o +#+@+@++@++O",
"@@+O@@+@@@@@Xo1>55555==-===--==-;7---;----7;5=5::o #@@@@@+@@+O",
"#@++@#+@#@& o:5,2555==-=====-----;--;;----<;-5,,::o @#@#@+#@++",
"#@@+@#@@#&Oo*>,5555==-===-=-=----;---;-;--<;--=5,>1o #@#@@#@@+",
"##@@##@#&O11=,=555========-=-----;;-;;;;;-6;--;-5,;*o &##@##@@",
"&##@#&#&O1::25-55-5=-==;=-=-=---;;---;;;;;67-;;;-=2>>oO8&#&##@",
"&##@#&9Oo>:255-55---==;;-=------;;--;;-;;-<;;-;;;7=,>:oO0#&##@",
"9&##&8#o$;,525-=5;-===--=-=------;;-;7-;-;<7-;-;<7-5,::o&89&##",
"9&&#&0O$<=5555-55=====-=---------;--;;7;7777;;;77;;-=,:1O08&&#",
"99&#9#o>;,5525-=5===;-=-=--;-;---;-;;7;7;777;777;777-51>o&89&#",
"899&8Oo=,55555-5===;==------;;;-----7777777;;77;;77;;=411O089&",
"899&#o>,q55555-=5;;-=-=----;-;;;-;-;;77<77;;7<;77<;7;;5,1X&09&",
"8899O%>,225555=5=;===--------;;;;;;;77777;77<77<<77;7;;,1o@099",
"088#o*,q55255=5=5=;-=---7;---;;;-77;;7;;;77<;7<<;;7777;5,;X&89",
"088O*:,25=5555======----7-----;-;77;;77;7<<;;<<777<<7;;;,<;@89",
"w08X*:,55==55=5=--=7=--;7;---;;7-77777;;<<;<<67<76<6;7;75==X88",
"w00X>,e455-555====-;----<;----7;;77;7;;<7;;<<7<76<6;;777=,:X&8",
"w0&o>q444=-55=5==-=7=--;6;--;;;;-<777;;<7<<67<76<6;<7677;,:o&8",
"rw@>>,444=-55=;====7----t;--;;7;;<7;77;<7;66<<666<<6<7777,:o@0",
"rwX>,52445-=5=5---=7=--;t;-;;7;;;<7777;67<<6<<666<;67<<6<2,oX0",
"rr1:55545--55===;=-;----6;--;77;;6<;77;<<<6<<666<<<6<66<<-,;X0",
"y0$>=2555--55=5=;-=7=--;<;--;7;;;67;77;67<6<<66<<6t676<6<25<$0",
"y0%:-5=555-5====;=-7----<;-;7-;7;t<;77;6<<6<<66<6uutt<6;<3-6O0",
"y0O%;;=52--=5=5=;-=;---;7;-7;;;7;t7777;67<6<<666tuiu66<<<-;%@0",
"pr9@%<;55=-55===;=-;;---7;;;-;;7;6<777<t6<6<<66t6uuut66;<6%@00",
"ppw&@%t5=5555===;-=;---;;7-;-7;;;<77;<;t7<6<<666tt6t6<67i%@880",
"ypw&@%t5=-55====;=------;<--777;;<<777;66<66<<6666t6<6<7i%@&80",
"yr9@%<;5252=5=5=;-=;----;<-;;7;7;<7777;67<<6<<6<<66<<<7<<6%@90",
"y0O%;;=2552255==;=-;----;6--;;77;<<;77;<6<66<<6<<6<<<<<;7;6%O0",
"r0%>-=5522255=5=;-=;----;6;;;7;;;<7777;6<<<6;<<<<6<<;<7<;4;6%0",
"r0O1-552522255====-=----;<;;7;;7;77777;<<;66<<<<<6<<<77;;,>7@0",
"r0+o1,552222==5==-=;----;<-;7;-7;;<7;7;<<<<6;<<<767<7<7;=,:7&0",
"w0&X$,e22222==-===-;----;<-;--;;;;<7;7;<<;<<7<67<<<7777;5,:;08",
"w00Oo1,522225=-;5---=---;7---7;7-;6;;7;<7;<<767<76777;7;,<-X08",
"w08@o*,4522255=;;=------;7--;7;;;;6;;7;7<;<<7<777<7777<=,;-@88",
"0889X-=325255=5=-;--;-=-7;--;777-;6;77;<7;7<7<777<;;;77=,oX889",
"0889@o<,425555=5=--=---77---;;7;-;<7;7;77;<777777<7;7;-,<-@889",
"88998X-,3425==5=5=----=7;--;-;;;-;<7-7;77;7<;777;<;7;75a-o8899",
"899&9@o>,355--55====;=-----;;;---;7;;7;77;77;;77777;;=,aoO899&",
"899&98o1=,555--=5=5==-=-=--;7;----<7-7-77;77;;;77777-,aso9899&",
"99&#99O$-,32=--55=====-;;---------<;-;;;7;77;;;7;7;75,sdO&99&#",
"9&&#&9&o=-,35--55-5==--;-----;---;<;-;-7;;;7-;;;;7;-55ao&&9&&#",
"9&##&9#Oo=a,3--55-;===;;--------;;7;-;-;;-7;;-;-;7-5-7oO&#9&##",
"&##@#&##Oosa,3=55=--5=;---=-;;-;;;;;-;-;;;;7-;-;;=a-6oO&##&##@",
"&##@#&##&O%sa,3555=-==-;-=-=-;---;7--;-;;-;<;--;=aa7oO&&##&##@",
"##@@##@###O%-5,35=5=5-;-=====----;;;-;-;;-;<;--=,;doO9###@##@@",
"#@@+@#@@#@# $75,,355=--;-=555=----------;;-;;5,,;6oO9&@#@@#@@+",
"#@++@#+@#@#&X$=5>,3=5==-;-=555=-=;7--;--7;--5,1soo@9##@#@+#@++",
"@@+O@@+@@@@@#X%157,,35==-;;=5=-77-------7-5,s*s>O###@@@@@+@@+O",
"@++O++@++@+@+@OXo1-5,,,45=-;=-7tt7=-=--5,as-<;oO#@+#+@+@++@++O",
"++O +++O+++++ O+OX%1-7-,,,423;6XX6;4e4as711-oO#O+++@+++++O++O ",
"+OO OO+OO+O+O O++OXo%1$sds,,-<%@@X<-,>1--XoX++OOO+O@O+O+OO+OO ",
"+O .OO+ O+O+O. + O+@OXo111$-;o@&&@o;-11XoX++O+O O+O@O+O+O +O .",
"O  .  O  O O . O  O O@+ OXo%XO@&&@OX%o  O  O O   O + O O  O  .",
"O .X  O. O O X.O. O O . O + O +@@+ O X. O. O O . O + O O .O .X",
" ..X.. .. . .X. .. . ... .O. . .. . .X.. .. . ... .O. . .. ..X"
};
