/* XPM */
static char *out[] = {
/* columns rows colors chars-per-pixel */
"64 63 13 1 ",
"  c #4B371B",
". c #3F2F17",
"X c #332B13",
"o c #43331B",
"O c #533F1F",
"+ c #5F4323",
"@ c #6B4727",
"# c #4F3B23",
"$ c #774F2B",
"% c #875733",
"& c #7F532F",
"* c #5B472B",
"= c white",
/* pixels */
"             .X...X.o OOO+OOO+++OOOOOO+OOO++++O ..X.o           ",
"@@@@O@@O++O   XXX...Xo #OOOOO+O++O+++OOO+O++O+ .X.X. +++++@@@@@@",
"$%%%&&&&&$$@ o.....XXX..o....o..o    #OOOOOOO .X  .  +@$$$$$$$$$",
"+@@@@@@$$$&@+..XXX.X.....XX.X.X.....XXoooooooX. .    +$@+OO+++++",
"+OOO#+O+@@$&+ .X. OOOOO    O#o..oo....... .    .X..  @$+OOOO++++",
"+OO+#++**@$$Ooo. O@@$%&&$$&$@+++OOO#    OOO##oo .XX. $@O O OOOOO",
"OOO##@+*O++@ o. O@$&$$@@@@@@@@$$&$$$$$@$@$@@@OO#o.X. $+ OO+  OOO",
"OO#O#@*O##+@ .. O$&$@@@+OOOOO+@@@@+*#++@++++@++O  .. $+ +  O OOO",
"OOO#OO*##@ + .o O$$+++OOOOOO@+@OO@@#OOO+@++++++O . .O@OOO  O+OOO",
"+O#OO#O### + .. O$@O+OOO+OOO@@++++@OOOOOO++++++O X. ++O O   OOOO",
"OOO#+O#+# ##oX  O@+@O++O+ O+@+@@OO+OOO+OOO+OO++O  . @O        OO",
"OOO##O##+  #oX. O@O++OO+O@+@O@@@@++ O++O++OO+++O ..O@  O .X.O OO",
"O+OO OO    o.X. O@+@@++OO@@OO+ @@+O@+OO+OO++OOO .. ++ O.XX.O  OO",
"  OOOO O  oo. .OO++@++@+OO+OOO@+++OO@@@@$@@@++O#.. +O  X. O   oo",
"...   Oo oo. .. OO+@++ +OO++O+++@+OO@$$@+O++OOO .. +  O. O+  o..",
"X..... ...    X  O+++@@OO@++++++@@@$$@+O++@@++O#.. +   O++O o.. ",
"...XX.  XX..X  X. O+++@OO++OO++++@$@++O+@++@++O#X. O   O ooo... ",
"X.o     oo...  XX.  OOOOOOO  OOO@$@+++O++++@+OO#..    O o...X  .",
"XoO+++OOOOOO## ....X.oooooo..ooO@+OOOOOO+@+++O# ..X.oooo...X  X ",
".oO@@&&$$$$@@+# o.X...o   ..oo..o  OOOOO@+++O  ..    O  O  ++   ",
"  @$$@+++@OO+@@+ o.X X. #OO## o...XX    O### ..X  O@$$$$$$$$@+ .",
". &$@+++@++OOO+@O X X +@$$$$@+OOO#   o.  .X...X. +$$@++++@++++ .",
"X &@+++@+@+OO@+@+Oo  +@$&&&&&&&$$$@++++# ...X.X.O$$@@+O++@+O+O .",
". $@++@@@+O@O@@+O# . +$&$@@@O@+@@@$$$$@@+# .X.. @$@O@@OOO@@OOO .",
"  $@+@++@@+O+++OO# o#@&$@@@+@$@@@++@+++++O# ..  $@++OOO++OOO+O .",
"  @+++ ++++OOOO+O   #&$@+@OO@@@++++@@++++OO .. O$O+@@++@+O++@O  ",
"  @+++$+@+OO+O++O X O$@+*+O@+@@@+ +++++O++O ..O$@@@O+@@+O+++OO  ",
". @++++++@+OOOO+O X +$@*++O+O+@+@@@@++++OO# . +$O@+@++@@@+@@OO  ",
"X @+++@@O+@OO+O@O . O@@++@+ OOOO++@@+@@@OO# o +@@O+@++++@@+++O .",
"X @++@@+OOO +OO+# . O@O++++@++@+O++@+@@++O ooO@++++@++@+@++@+O .",
"X +@@++@O++$++@+# X #@O*++++++@@O+O+@@OOO#.o O+++++@@+O+@@+O+O .",
". ++@+OOO+OOOO+OO   #@++++++@ ++OO+O+O+++ X. O+@@+@@O+O+@O+O++  ",
" o+O+O++++O@O+OOO   O+#@+++@$@@@OOO+OOO .... .. ++++O++O+O++O+ .",
" o+OOO+O O+O++OOO X O+#@+OO@@@&@++O+@@ . o..   .. O++@O+++@O+O  ",
" o+OOOOO$+@+OO+O+ X #+#OO+++@+@@@++++ .O oX.@+O  . +OOO++OOO+O .",
".o+O+++OO@@OO+++O . #++++@@+@+@@++OOO+@O XX.O@$$$@@OOOOOOOOOOO  ",
" o++OOOO+@+OO@OOO   #++#++@@O@@@+@O@@++@O. .O+@O++O+OOO++OO+@@+ ",
". +@+OO++++@O+O+O#   #O##+@OO+@@+@+O@@+O@  .O+O+OOO++OO++++$@OO.",
"X +@+ O+++OOOOO++#. .   #OOOOO++++@OO++OO . O+O++O+OOO+@@$$@OO .",
". +@+$OOOOO+OOOOOO  X XX.o  #O+++O+OO+OO .. O@++@+O+OO@$$@O@+O  ",
"Xo+++@O++@@@+O+OO#. ooooo X..o #OO+OOOO .XX O+@+OOOOO@$@+O+++O .",
"Xo++@++O+O@O+O++## . O++O  ...X..  #OO .XX  O++O OOO+@@+O++++O  ",
".XO@@OOO+OOOO++O o. #++@@@+O o..X  . o..X  .    O++O@@++OO+++O  ",
" X OOOO    OO+O ... #+@&%&$@O++OO   ooX. X..  OOO+O@+O+@+O+OO   ",
". X....o..oo......X.#+%$$$&%&@+++OOO  ..X.X..   OO+OOOOOO      .",
" .  .X  XXX  X X.. .#+%$@@@@$&&$@++OOO+OOOO  o.X       X  ..X.. ",
"O         ooo   o..o#+$@++OOO++@$$$@@+++@+++++Oo X.Xo     oo   o",
"++++O OOOO#O#+O# o.o#+O++OO+O++OO++@$$$@@@@@@++  X.. ++++++++++@",
"$$$$@$@$$@@@$&$@# .o#O++OO++O++++OO++OO+++@@@OO . . +$%%%&$&$$$$",
"++OOOO+@O+O+@@$$@#.o#O  OO+O+O+@+OO+++ @O+++O@OO.   @$$@OO++++OO",
"+++O++OO+@O+O+@@$O o#O@ . OO++O+@@O+++@O+++OO+OO..  %$@++O+++++O",
"@+O+OOOOO@+ @+O+$O o#O@$ .. O@+OOO+O+O+O+OOO++@ .X  $$@++O++@++O",
"++@+@+O+@OO@@O++@@O.o#@@$ ...O@O.OOOOOOOO@++@@+ .X  @@@@O+@++++O",
"++++++OOO+++OOOO+@OXo#@+O@+  .+O@O+O+O+++++@+@+ .   @@++@O++++O+",
"O+@++++ +OO++@++O@O.o#@+OO@@+  OOOOOOO+@@@+@@+O . . @++@++++++OO",
"O++++@+@O+++@++OO@OXo#+++OOO@@++OO+OO+ +@++@++O . . @++OO++++@@O",
"OO O+++OO@@$++++++ .o#+@++OOO++++OO++O@++@@+@++ .X. @+OO@+@+++OO",
"O  O+++@+++$+++@@O .o#+++@+O+OOOO+O++O++@@@@@@@   . +OO+++++++O@",
"OOO++OO@++++@+ @OO. o#++++++++O++O O+OO++@@@@@@O.X o  O@+++++OO+",
"OO OOO+OOOO+@+@@+ . o#+++OOOOOO+OO@OO+O++@+@@@@ .X o  OOOO+O+++O",
"OOOOOO O   O@OOOO...o#+@++OOO++++OO++OO++@@+++@ .  . ooooo     O",
"....................o#+++@+O+OOOO+O++O++@@+@+@OO. .X.. ..... . .",
"... .  X..X.X .. .X.o#++++++++O++OOO+OO++@++@+OO. XXXX  XXXX. . "
};
