/* XPM */
static char *out[] = {
/* columns rows colors chars-per-pixel */
"62 63 63 1 ",
"  c #777777",
". c gray42",
"X c gray39",
"o c #5B5B5B",
"O c gray31",
"+ c #CBCBCB",
"@ c gray50",
"# c #4B4B4B",
"$ c #6F6F6F",
"% c #9F9F9F",
"& c #A7A7A7",
"* c #838383",
"= c gray67",
"- c LightGray",
"; c gray78",
": c #939393",
"> c gray70",
", c #DFDFDF",
"< c #EFEFEF",
"1 c white",
"2 c #FFCFB3",
"3 c #7B634F",
"4 c #434343",
"5 c gray34",
"6 c #BFA78F",
"7 c gray75",
"8 c #574333",
"9 c gray23",
"0 c #B7B7B7",
"q c #373737",
"w c #6B4727",
"e c #2F2F2F",
"r c #5F4B37",
"t c #8B735B",
"y c #473323",
"u c #8B8B8B",
"i c #232323",
"p c #9F876F",
"a c #9F8363",
"s c #6F5743",
"d c gray28",
"f c #979797",
"g c #A78F77",
"h c #E7E7E7",
"j c gray86",
"k c #9B7F6B",
"l c #7B7F63",
"z c #533F2F",
"x c #272727",
"c c #3F2B1B",
"v c #43331B",
"b c #676B4F",
"n c #AF977F",
"m c #67533F",
"M c #5B6347",
"N c #474F33",
"B c #B79F87",
"V c #6F7357",
"C c #373F27",
"Z c #FFE3D3",
"A c #3F472B",
"S c #53573B",
"D c #FFFFD7",
/* pixels */
" . XoXOO  X+@#OOOOOOO$%&%*X * *=-;& X# %:**%=>,<-%1<2;%3O@&&%:",
"oo@:%%:@X4567.8999OX3 ***X:%:*7;0>%.4q :&7-;>%-;%>6%*3wO=>:::*",
".%7;;;;>.e4rt:.yO>+&4 >>7;;7%%0%=%%Oqe >-,,-;>%%*XXwyeO *%:%::",
">7>===%%*#44X  o ;--@*;-0;0%***u** O4.>--,,-0=*wO#qqqq4. *&:* ",
"%%%%*t33.*#.==:: 0-&=**%607&::uXo.XO :>0;;;0%% qeqiieq4X $XX$.",
"tu* .54O.w9:;;-:o3pa-7:&==%>>>=%:9OO*:%%00;=%*oeeo.oqqe4:-<,:.",
"43so#q9X#o*>>>;7@8#X%0&&%%&&&>>>=@9idX @:%:* X9eo@:=:oO%-,--&$",
"494qqqO#$:;==>=% qX* :::%%%%%%&>>%XiiddX*::&7>fO *:;;++,;;;0* ",
"u.4q9q#9g;>>777& := X *:::%%:ff=>& 9iXX:>7;h1-;fXf:%=;-,;==%* ",
"&&:X9X:%7--;-,;&:>%XoX :::::f:%&&=:9X@%>+-hhjj;&$XX@=7-;>==: .",
"&%:*@=,,---;;0=*:0 o44O  ..=--,-7=fX:7-----;00&f0-&:;;00&==:.O",
"%&&%::=;;;0%*tXX=: ooO4yoXX%=;>;;0%$:;;770>=:*tsp% 57>&&&&=:OO",
"stk*%*%%**3r#8e*=* . O.:0;-0%tt*p%%@@%00=:@ .so.Xw55==&%=&% 4q",
"98r3ll3.X5@%::.:=*oX :7;----7&*X3. .%=*pt3ss#q5:>% O%%&&&:*Oe4",
"=@Oy##9z9@<<,7:77*O4:0--,hh,-->$oqy*77@..@:%=:@ %7+% *:::*5eef",
";-.4:7+@.:6%6* 0%.4*700;-j,h,-->$@%7;>@O 7-77-%.:>;-:X 3X4OOe=",
";=. ==07:rt:*  %*O >-;00;-,,,j-->: 33wwq:7,;;;0o@>-;:oOO%+-@4=",
"%38X*:&&&@** 3&;&X*-,,;&>;+-----0 4O@.xq =007& xo$:@XO.7-%tX.@",
"XO.*.:&&%:X ..00*.&-j<,&:777--;%3X*=-0@x# *f .#cxwX.o4 v34o@=&",
":+7=X*&&&%@ **%% :;-,--&*>0>&%*X#X*%;;=*f&f*o#oi4:+,%*::.:=>& ",
"7>%*. :&&%*o 85s.>,j;;0f ff@XXO99* *uu*>+j,;>@ o=,,;%$%&:***::",
"*XrOo f&%f*4oq99:-,;0>%* XXXOd9O4*::: f&>,,,+= :>%ptXX.t3s.=>;",
"X4o::%@.f: 4#.@@7-;>&&: .qqd9OoX4   t *f&+j-7=X****Oe#eeO@7>0%",
":=7::::@o.oO.**=;00&&&:.Oxx4OoX5dXX.d**uf0j;=:#rX:0-:4@%770%*#",
"::%**** oodo $:7>&&&&=:oOx4OoX5d  Xqq*l*u=;>%*d.:0--7:&%*t XX$",
" .Xoooo4444o..:==&%=&% oOx4O.5d :%:.q.ll %>=f$:>>0000 sX.**&+=",
"4OO4OO4eo::%:o*%%&&&:*o.4q4o.59.@:&&.d.. :&:* >>77;7%8e.7-=;-;",
"O.. @@..:7,,7:ooX  .oo 4qO4X.@:* @:::5do.@ Xo%7;;;00:$:7;=*&0-",
"*::&=>=>&%a67=.4xxxdX$$@.Ox5%7>*..@@.54OXXo4$:>0==%&@&$0;=::7;",
":&>>=&00%%o3%*.4xx9 %%=7 #x*77>*.5r9e4q44qqq5@uf&::@:%of;>: a3",
"s%7&%0%%%7+-+>::oO 77;,; O9*%%&:XO9eo$*&=77&&%>& $o*:*4op* XOO",
"Xt0%>=%:77;;077=%*%77-,6@@70= *:XOib:&>;-00=%>=:od.l.l.##5.oXo",
":O3%7&%>;%&%&:&&7=:*=->**==&>:*:.qO%7;;;0>=%>>%@4$l.X.7+@O#O@:",
">X4l;%:f=&7777>@* Xstp3X:f%gn: %7+%X*:::*@@@@$3.5X.O#&;;;@.=7-",
";:O43p.f>7;;--++%4OoXX4m@:&::l*:>;-:X 3X4OO55OO45o#99l*pt*7,-j",
";>:O4#O@f7;-h<<-+7:* .OX**::tr::,-;:oxO%+-@4i999#9qqqf>XX7-;;-",
";7>@O#4.@%;;-h<<j--7% O :l*toiX*0%: O.f-%tX.@.*oe99e#7-%=;;0;-",
";;;=:#rt.@=0;-j,,j-;7.4 @*b*= cwwqxo4 @34o@=& ..444xb,,>070>;-",
";;;;=@o.#3@%&7;-j-+;&O4.l..tn%.4:+,+:::OX:>&:@$XO @9of0=77>0;;",
";;;;;*@:4#oX *%=07=% qe. o#4s% =,,;%*%&:OO*::@Oo*>>7>O%;;;07;;",
";;070o#*.e944O. :::@Oeeoo4e##l:>%ptXX.t3s.=>;O4@%&%%0::007;;;;",
"0;0: 4*&:*4e94OO. @.44OOOee4XX****Oe#r#O@7>0%O *:&&&=::007;;;;",
": XX4*&==>:e4OX %*X  *f%*4eO.orX:,-:4@%770%*%>7::&&&&*%00;;;;7",
"XX:%X*:&:7>4qd0-;;%00;>%$4955#.:*--7:X%*t X>,,& ::::*l&0007>&:",
":0-j=.:::&>o4=-0>&O****.4OO##.>>:0>0 sX.**&:0<: %=&:O.&00>&u:@",
"0-,,j@ :::.O@7>=&&4oX.dq4oO **  &:%% qolM*;&:* &=;;;&:%&&&u*XN",
"&----@ O..O@%%==%*44O4994o**:-->*0---0*4q;;:$$&:=;;-;;&::@X4qx",
"bX@@**444O %=0&::*3X44OO. . 0>&$0->7777;;7>*oo**:%>&>=>& o9eqq",
"*e#O4XOOXX*07;&*%%60tOXX@X*7>*$o7&>>&>&&7**o:&*o*:%==&>7 xxqq*",
"**%%:%%%0oX :%%%66>% 3& #*0;7%%:::&>&==&7*OO::&*. ::%&:* 44eq&",
"O=>;77>>&*XoOO*>66%l l%%007>07;%.l:=&%ff&74O*:::*ol:::: .4X4X=",
"4*:&&&::: 6;= nnBpl#4X%=:::::ffuON:%:@>7&:4O*:***o4@:: *4XoO%7",
"eXll***lV6<,=lp:kl%%***k*@@@@@lX4CO@ =;7;&.O.:* X. OM : 44O*>;",
"q4OMb .XlZ,0**%%=-<,>* lklllVX54ee9o%7>7;;& 4OO4 %l599.:074*&:",
"%*eq9A44bl&>:::;,,;%** 35mS#4AA#X*$X>>;>7;7-:4qX*lXo9O:=7*qb* ",
"7 eee4o44S::*X*>f *%=;>:X5t.444*=%X >77777>7;0&*Xo59q >>:Xq4oo",
"%%*4eOo4eX%&7$$ f=77;7>=.*>&**:4llX*7777>7>>>;;0% 4qX&&;;;*O..",
",<,:O  4r&%%u f>7>>7>&:&. *..:@4XoX:>>777>>&=>>=7:O.:=&77>*O.e",
";;;;=%* :&f f&&=%:=:::::oX.449e#...f=>77&>>%==::*. &>>&=:@oOO4",
">;77;;: * :**:%%%f*:*** *&;0OeX*0& :>>=&=&&:: @ .O4*::: 44*-;f",
"7>777>: X:*:*::%:***** XX%-,;X:--:**:::::*.O4O %;6*OX**oq.;--$",
">7>>>&:o***:*:::u:** @.OX:0-> &-;%*%00;*e4qxO%;;,1D0X*.44X::@$",
"f>&>::oO*X *:::::*** .O#.*:=:X:=lu=--;;0444X>---<,<7*OO9eX ..."
};
